<mxfile host="app.diagrams.net" modified="2023-02-02T19:36:33.339Z" agent="5.0 (Windows NT 10.0; Win64; x64) AppleWebKit/537.36 (KHTML, like Gecko) Chrome/109.0.0.0 Safari/537.36 Edg/109.0.1518.70" etag="n3jj7ueYiSFbU7Mna49w" version="20.8.13" type="github">
  <diagram name="Page-1" id="fXB9BFMCd3oZOO6Uk01C">
    <mxGraphModel dx="930" dy="566" grid="1" gridSize="10" guides="1" tooltips="1" connect="1" arrows="1" fold="1" page="1" pageScale="1" pageWidth="850" pageHeight="1100" math="0" shadow="0">
      <root>
        <mxCell id="0" />
        <mxCell id="1" parent="0" />
        <mxCell id="JTdglCXHnuG6OrsKsZt5-10" value="Selenium Hub" style="verticalLabelPosition=bottom;verticalAlign=top;html=1;shape=mxgraph.basic.patternFillRect;fillStyle=vert;step=5;fillStrokeWidth=0.2;fillStrokeColor=#dddddd;" vertex="1" parent="1">
          <mxGeometry x="320" y="40" width="160" height="80" as="geometry" />
        </mxCell>
        <object label="" URI="http://172.19.0.4:5500" id="JTdglCXHnuG6OrsKsZt5-11">
          <mxCell style="dashed=0;outlineConnect=0;html=1;align=center;labelPosition=center;verticalLabelPosition=bottom;verticalAlign=top;shape=mxgraph.webicons.chrome;gradientColor=#DFDEDE" vertex="1" parent="1">
            <mxGeometry x="320" y="40" width="40" height="40" as="geometry" />
          </mxCell>
        </object>
        <object label="" URI="http://172.19.0.3:5500" id="JTdglCXHnuG6OrsKsZt5-12">
          <mxCell style="shape=image;html=1;verticalAlign=top;verticalLabelPosition=bottom;labelBackgroundColor=#ffffff;imageAspect=0;aspect=fixed;image=https://cdn2.iconfinder.com/data/icons/browsers/Firefox.png" vertex="1" parent="1">
            <mxGeometry x="440" y="40" width="40" height="40" as="geometry" />
          </mxCell>
        </object>
        <mxCell id="JTdglCXHnuG6OrsKsZt5-14" value="http://198.27.80.76:4455/ui" style="text;strokeColor=none;align=center;fillColor=none;html=1;verticalAlign=middle;whiteSpace=wrap;rounded=0;" vertex="1" parent="1">
          <mxGeometry x="325" y="90" width="150" height="30" as="geometry" />
        </mxCell>
      </root>
    </mxGraphModel>
  </diagram>
</mxfile>
